PathFileType	4	(X/Y/Z)	/Users/guillermo/Documents/TESIS/Procesamiento_videos/data/sports2d_raw/Cam1_rep/sujeto01_caml/sujeto01_rep09_camL_Sports2D/sujeto01_rep09_camL_Sports2D_px_person01.trc
DataRate	CameraRate	NumFrames	NumMarkers	Units	OrigDataRate	OrigDataStartFrame	OrigNumFrames
120.0	120.0	13	22	m	120.0	0	68
Frame#	Time	Hip			RHip			RKnee			RAnkle			RBigToe			RSmallToe			RHeel			LHip			LKnee			LAnkle			LBigToe			LSmallToe			LHeel			Neck			Head			Nose			RShoulder			RElbow			RWrist			LShoulder			LElbow			LWrist			
		X1	Y1	Z1	X2	Y2	Z2	X3	Y3	Z3	X4	Y4	Z4	X5	Y5	Z5	X6	Y6	Z6	X7	Y7	Z7	X8	Y8	Z8	X9	Y9	Z9	X10	Y10	Z10	X11	Y11	Z11	X12	Y12	Z12	X13	Y13	Z13	X14	Y14	Z14	X15	Y15	Z15	X16	Y16	Z16	X17	Y17	Z17	X18	Y18	Z18	X19	Y19	Z19	X20	Y20	Z20	X21	Y21	Z21	X22	Y22	Z22
0	0.0	1044.500244140625	388.4615478515625	0.0	1040.8271484375	392.1346435546875	0.0	1007.769287109375	480.2889404296875	0.0	1015.115478515625	577.6259765625	0.0	994.9134521484375	607.0107421875	0.0	996.75	601.5010986328125	0.0	1029.807861328125	590.4818115234375	0.0	1046.3367919921875	388.4615478515625	0.0	1051.846435546875	496.81787109375	0.0	1094.0870361328125	601.5010986328125	0.0	1068.3753662109375	652.9244384765625	0.0	1079.3946533203125	651.087890625	0.0	1110.615966796875	610.683837890625	0.0	1009.6058349609375	259.9031982421875	0.0	1013.2789306640625	219.4991455078125	0.0	994.9134521484375	237.8646240234375	0.0	1015.115478515625	294.797607421875	0.0	1007.769287109375	366.4229736328125	0.0	958.1824951171875	340.7113037109375	0.0	1002.2596435546875	258.066650390625	0.0	967.365234375	182.7681884765625	0.0	937.98046875	118.489013671875	0.0
1	0.008333333333333333	1044.500244140625	388.4615478515625	0.0	1040.8271484375	392.1346435546875	0.0	1007.769287109375	480.2889404296875	0.0	1015.115478515625	577.6259765625	0.0	994.9134521484375	607.0107421875	0.0	996.75	601.5010986328125	0.0	1029.807861328125	590.4818115234375	0.0	1046.3367919921875	388.4615478515625	0.0	1051.846435546875	496.81787109375	0.0	1094.0870361328125	601.5010986328125	0.0	1068.3753662109375	652.9244384765625	0.0	1079.3946533203125	651.087890625	0.0	1110.615966796875	610.683837890625	0.0	1009.6058349609375	259.9031982421875	0.0	1013.2789306640625	219.4991455078125	0.0	994.9134521484375	237.8646240234375	0.0	1015.115478515625	294.797607421875	0.0	1007.769287109375	366.4229736328125	0.0	958.1824951171875	340.7113037109375	0.0	1002.2596435546875	258.066650390625	0.0	967.365234375	182.7681884765625	0.0	937.98046875	118.489013671875	0.0
2	0.016666666666666666	1046.0672607421875	390.3475341796875	0.0	1038.5306396484375	392.231689453125	0.0	1010.268310546875	486.439453125	0.0	1006.5	586.2996826171875	0.0	974.4693603515625	616.4461669921875	0.0	978.2376708984375	608.9095458984375	0.0	1017.804931640625	601.3729248046875	0.0	1042.2989501953125	388.46337890625	0.0	1042.2989501953125	492.0919189453125	0.0	1089.40283203125	601.3729248046875	0.0	1066.79296875	656.013427734375	0.0	1074.32958984375	650.3609619140625	0.0	1104.47607421875	605.1412353515625	0.0	1006.5	256.572509765625	0.0	1006.5	217.0052490234375	0.0	983.89013671875	235.8468017578125	0.0	1015.9207763671875	288.6031494140625	0.0	1012.1524658203125	356.4327392578125	0.0	963.1644287109375	337.5911865234375	0.0	997.0792236328125	256.572509765625	0.0	953.74365234375	190.6270751953125	0.0	921.7130126953125	130.3341064453125	0.0
3	0.025	1042.037841796875	395.3228759765625	0.0	1040.1024169921875	399.1937255859375	0.0	1005.2647705078125	486.287841796875	0.0	999.45849609375	584.9945068359375	0.0	970.4271240234375	615.9613037109375	0.0	970.4271240234375	610.155029296875	0.0	1009.1356201171875	598.54248046875	0.0	1040.1024169921875	393.387451171875	0.0	1038.1669921875	495.9649658203125	0.0	1080.746337890625	600.4779052734375	0.0	1057.521240234375	656.605224609375	0.0	1065.262939453125	654.6697998046875	0.0	1100.1005859375	610.155029296875	0.0	1007.2001953125	265.6494140625	0.0	1001.3939208984375	225.0054931640625	0.0	980.104248046875	248.2305908203125	0.0	1011.071044921875	298.5516357421875	0.0	1007.2001953125	368.2269287109375	0.0	964.620849609375	345.0018310546875	0.0	995.587646484375	259.8431396484375	0.0	951.0728759765625	205.6512451171875	0.0	918.170654296875	163.0718994140625	0.0
4	0.03333333333333333	1042.6862182617188	397.72247314453125	0.0	1040.8853759765625	401.32415771484375	0.0	1004.8685302734375	491.36627197265625	0.0	986.860107421875	583.209228515625	0.0	965.25	613.8235473632812	0.0	965.25	608.4210205078125	0.0	995.8643188476562	597.615966796875	0.0	1037.28369140625	394.12078857421875	0.0	1035.4828491210938	502.17132568359375	0.0	1067.8980102539062	603.0184936523438	0.0	1044.487060546875	655.242919921875	0.0	1053.4912719726562	655.242919921875	0.0	1087.707275390625	613.8235473632812	0.0	1001.266845703125	268.06182861328125	0.0	994.0634765625	226.6424560546875	0.0	976.0550537109375	248.2525634765625	0.0	1006.6693725585938	300.47698974609375	0.0	1006.6693725585938	370.7098388671875	0.0	961.6483154296875	352.701416015625	0.0	992.2626342773438	262.6593017578125	0.0	943.639892578125	210.43487548828125	0.0	900.419677734375	170.81634521484375	0.0
5	0.041666666666666664	1040.2646484375	394.54229736328125	0.0	1038.4674682617188	399.933837890625	0.0	1002.5238647460938	496.9815673828125	0.0	982.7548828125	588.6377563476562	0.0	961.188720703125	613.7982788085938	0.0	961.188720703125	608.40673828125	0.0	991.7407836914062	601.218017578125	0.0	1036.6702880859375	394.54229736328125	0.0	1031.2787475585938	505.96746826171875	0.0	1060.0336303710938	610.2039184570312	0.0	1033.075927734375	658.727783203125	0.0	1043.8590087890625	660.5249633789062	0.0	1079.8026123046875	620.9869995117188	0.0	1002.5238647460938	268.73968505859375	0.0	991.7407836914062	229.20172119140625	0.0	975.566162109375	254.36224365234375	0.0	1015.1041259765625	301.08892822265625	0.0	1011.509765625	374.7733154296875	0.0	961.188720703125	362.19305419921875	0.0	988.1464233398438	263.34814453125	0.0	934.2310180664062	214.82427978515625	0.0	880.3156127929688	177.08349609375	0.0
6	0.05	1039.23486328125	398.063232421875	0.0	1034.214111328125	404.757568359375	0.0	1002.416015625	501.825439453125	0.0	977.312255859375	588.851806640625	0.0	952.20849609375	612.281982421875	0.0	953.882080078125	605.587646484375	0.0	984.006591796875	605.587646484375	0.0	1039.23486328125	398.063232421875	0.0	1024.172607421875	508.519775390625	0.0	1052.62353515625	610.6083984375	0.0	1027.519775390625	659.142333984375	0.0	1037.561279296875	657.46875	0.0	1071.032958984375	622.323486328125	0.0	994.048095703125	270.870849609375	0.0	985.68017578125	237.399169921875	0.0	967.270751953125	262.5029296875	0.0	1009.1103515625	299.32177734375	0.0	1009.1103515625	372.95947265625	0.0	963.923583984375	364.591552734375	0.0	984.006591796875	267.523681640625	0.0	932.12548828125	229.03125	0.0	885.26513671875	200.580322265625	0.0
7	0.058333333333333334	1035.361083984375	401.1859130859375	0.0	1029.1025390625	407.4444580078125	0.0	994.6805419921875	498.193359375	0.0	969.6463623046875	592.071533203125	0.0	943.0475463867188	613.9764404296875	0.0	944.6121826171875	607.7178955078125	0.0	979.0341796875	607.7178955078125	0.0	1038.4903564453125	401.1859130859375	0.0	1022.843994140625	510.71044921875	0.0	1047.878173828125	620.2349853515625	0.0	1021.2793579101562	664.0447998046875	0.0	1032.2318115234375	662.4801635742188	0.0	1066.65380859375	629.622802734375	0.0	993.1159057617188	271.32110595703125	0.0	980.5988159179688	238.4637451171875	0.0	961.8231811523438	263.4979248046875	0.0	1010.326904296875	299.48455810546875	0.0	1013.4561767578125	377.71636962890625	0.0	966.51708984375	376.1517333984375	0.0	980.5988159179688	269.7564697265625	0.0	928.9658203125	240.02838134765625	0.0	888.2852783203125	221.25274658203125	0.0
8	0.06666666666666667	1032.498046875	405.059326171875	0.0	1024.752685546875	408.157470703125	0.0	992.22216796875	505.7490234375	0.0	967.43701171875	597.144287109375	0.0	948.84814453125	620.38037109375	0.0	948.84814453125	612.635009765625	0.0	975.182373046875	611.0859375	0.0	1037.145263671875	403.51025390625	0.0	1018.556396484375	511.9453125	0.0	1041.79248046875	623.478515625	0.0	1010.81103515625	668.401611328125	0.0	1023.20361328125	668.401611328125	0.0	1058.832275390625	632.77294921875	0.0	990.673095703125	273.38818359375	0.0	978.280517578125	240.857666015625	0.0	958.142578125	264.09375	0.0	1007.712890625	299.722412109375	0.0	1015.458251953125	377.176025390625	0.0	970.53515625	389.568603515625	0.0	979.82958984375	273.38818359375	0.0	925.612060546875	250.152099609375	0.0	885.336181640625	236.21044921875	0.0
9	0.075	1027.4375610351562	409.49688720703125	0.0	1022.7930908203125	411.0450439453125	0.0	987.1854858398438	508.57891845703125	0.0	962.4149780273438	598.3720092773438	0.0	940.7407836914062	615.4017333984375	0.0	942.2889404296875	609.2091064453125	0.0	970.15576171875	610.7572631835938	0.0	1033.6301879882812	407.94873046875	0.0	1011.9559936523438	516.3197021484375	0.0	1036.7265014648438	627.7869873046875	0.0	1004.2152099609375	669.5872192382812	0.0	1013.504150390625	669.5872192382812	0.0	1053.7562255859375	637.075927734375	0.0	985.6373291015625	276.35540771484375	0.0	974.8002319335938	243.8441162109375	0.0	953.1260375976562	268.6146240234375	0.0	1008.8596801757812	301.12591552734375	0.0	1030.5338745117188	367.6966552734375	0.0	1013.504150390625	442.0081787109375	0.0	974.8002319335938	276.35540771484375	0.0	912.8739624023438	256.2293701171875	0.0	861.7847900390625	250.0367431640625	0.0
10	0.08333333333333333	1028.5233764648438	411.2940673828125	0.0	1022.5870971679688	417.2303466796875	0.0	979.549072265625	513.6948852539062	0.0	955.803955078125	601.2550048828125	0.0	923.1544189453125	614.6116333007812	0.0	923.1544189453125	607.1912841796875	0.0	960.2561645507812	616.095703125	0.0	1028.5233764648438	412.77813720703125	0.0	1012.1986083984375	521.115234375	0.0	1030.0074462890625	632.4204711914062	0.0	992.9057006835938	671.0062866210938	0.0	1007.7463989257812	672.4903564453125	0.0	1043.3640747070312	642.8089599609375	0.0	984.0012817382812	277.727783203125	0.0	970.6446533203125	248.04638671875	0.0	948.3836059570312	279.21185302734375	0.0	1009.23046875	302.95697021484375	0.0	1027.039306640625	366.77197265625	0.0	1001.8101196289062	429.1029052734375	0.0	966.1924438476562	277.727783203125	0.0	894.9570922851562	268.8233642578125	0.0	832.6261596679688	262.8870849609375	0.0
11	0.09166666666666666	1027.133056640625	413.887939453125	0.0	1022.79345703125	418.2275390625	0.0	977.950927734375	516.591796875	0.0	954.806396484375	603.3837890625	0.0	921.5361328125	617.84912109375	0.0	924.42919921875	612.06298828125	0.0	959.14599609375	617.84912109375	0.0	1024.239990234375	415.33447265625	0.0	1008.328125	522.3779296875	0.0	1025.6865234375	636.654052734375	0.0	986.630126953125	674.263916015625	0.0	999.64892578125	677.156982421875	0.0	1037.2587890625	648.226318359375	0.0	982.29052734375	282.25341796875	0.0	967.8251953125	251.876220703125	0.0	947.57373046875	282.25341796875	0.0	1011.22119140625	305.39794921875	0.0	1030.026123046875	370.491943359375	0.0	996.755859375	419.674072265625	0.0	964.93212890625	283.699951171875	0.0	894.052001953125	277.913818359375	0.0	824.618408203125	277.913818359375	0.0
12	0.1	1025.2941284179688	414.4248046875	0.0	1026.4962158203125	418.03106689453125	0.0	976.008544921875	508.1876220703125	0.0	950.7647094726562	601.950439453125	0.0	926.7229614257812	617.5775756835938	0.0	929.1271362304688	616.37548828125	0.0	957.9772338867188	616.37548828125	0.0	1019.28369140625	415.62689208984375	0.0	1003.6565551757812	526.2189331054688	0.0	1020.4857788085938	636.8109741210938	0.0	989.2315063476562	656.0443725585938	0.0	1001.2523803710938	659.650634765625	0.0	1030.1024780273438	646.4276733398438	0.0	979.6148071289062	284.599365234375	0.0	963.9876708984375	256.95135498046875	0.0	945.9563598632812	290.60980224609375	0.0	1009.6669921875	312.24737548828125	0.0	1028.900390625	381.96844482421875	0.0	986.8273315429688	437.26446533203125	0.0	962.7855834960938	283.39727783203125	0.0	894.2666015625	289.40771484375	0.0	834.1622314453125	301.4285888671875	0.0
